<?xml version="1.0" standalone="no"?>
<!DOCTYPE svg PUBLIC "-//W3C//DTD SVG 20010904//EN"
 "http://www.w3.org/TR/2001/REC-SVG-20010904/DTD/svg10.dtd">
<svg version="1.0" xmlns="http://www.w3.org/2000/svg"
 width="577.000000pt" height="532.000000pt" viewBox="0 0 577.000000 532.000000"
 preserveAspectRatio="xMidYMid meet">

<g transform="translate(0.000000,532.000000) scale(0.100000,-0.100000)"
fill="#000000" stroke="none">
<path d="M1995 4750 c-21 -16 -41 -30 -45 -30 -4 0 -20 -11 -36 -25 -16 -14
-34 -25 -40 -25 -6 0 -37 -27 -68 -60 -39 -42 -76 -70 -120 -90 -53 -25 -70
-39 -102 -87 -38 -58 -88 -108 -130 -131 -12 -6 -37 -38 -54 -70 -22 -40 -46
-67 -82 -92 -28 -19 -56 -35 -62 -36 -6 0 -19 -2 -28 -2 -9 -1 -30 -13 -46
-27 -17 -14 -39 -25 -51 -25 -14 0 -23 -8 -27 -27 -4 -15 -18 -42 -31 -61 -12
-19 -23 -44 -23 -56 0 -12 -14 -43 -30 -71 -16 -27 -30 -58 -30 -67 0 -22 -38
-88 -65 -113 -12 -11 -28 -40 -35 -65 -22 -79 -30 -94 -105 -211 -81 -124 -93
-169 -56 -203 12 -11 16 -25 13 -41 -2 -14 0 -25 6 -25 25 0 50 -86 56 -190 4
-58 11 -106 16 -108 6 -2 10 -42 10 -88 0 -46 4 -84 8 -84 4 0 7 49 7 110 -1
123 12 183 39 188 28 6 56 -27 56 -65 0 -27 -5 -35 -25 -43 -30 -11 -30 -14
-6 -54 10 -17 22 -52 25 -78 7 -43 10 -48 52 -68 51 -25 69 -51 60 -89 -4 -14
-8 -51 -10 -81 -4 -52 -2 -57 24 -72 39 -22 46 -67 16 -94 -13 -12 -27 -31
-31 -43 -5 -16 -14 -21 -41 -21 -35 0 -45 -13 -20 -27 8 -4 24 -25 36 -46 17
-29 20 -41 11 -50 -6 -6 -11 -19 -11 -28 0 -9 -7 -22 -15 -29 -11 -9 -15 -31
-13 -89 1 -66 2 -69 5 -21 5 68 18 83 43 52 15 -18 17 -28 9 -55 -8 -27 -5
-43 20 -97 47 -105 69 -161 87 -220 10 -30 35 -77 56 -104 46 -58 49 -54 8 12
-16 27 -30 55 -30 61 0 7 -9 30 -20 53 -10 22 -25 75 -31 117 -10 65 -9 82 4
114 13 30 13 37 3 37 -23 0 -24 65 -3 110 18 38 18 42 3 59 -20 22 -20 31 -1
31 17 0 20 25 5 35 -20 12 -9 62 25 120 20 32 38 70 42 84 3 14 14 35 23 46
22 25 45 71 54 108 3 15 13 27 20 27 11 0 13 -12 10 -52 -7 -72 20 -305 38
-326 38 -46 59 -112 57 -175 -2 -71 3 -87 30 -87 10 0 26 -10 37 -21 10 -12
38 -35 62 -51 37 -25 42 -34 42 -66 0 -21 6 -47 14 -58 9 -13 12 -36 9 -69 -7
-71 -4 -147 8 -161 5 -7 7 -57 3 -128 -5 -85 -4 -116 4 -116 9 0 12 36 12 118
0 131 11 165 52 155 13 -3 28 -10 35 -15 7 -5 29 -8 50 -7 21 2 43 0 49 -4 6
-3 16 5 23 19 6 14 17 24 24 21 9 -3 11 -28 8 -92 -2 -63 0 -86 8 -81 6 4 11
32 11 62 0 59 19 110 68 179 39 55 57 53 56 -7 0 -27 3 -48 8 -48 4 0 8 23 8
50 0 57 22 100 51 100 16 0 18 -9 15 -107 -2 -62 0 -99 5 -88 4 11 8 55 8 97
1 62 5 84 24 112 12 19 28 35 35 36 6 0 12 5 12 11 0 7 8 18 17 26 10 8 12 12
6 8 -7 -3 -13 -1 -13 4 0 6 5 11 10 11 6 0 10 7 10 16 0 11 -5 14 -16 10 -9
-3 -18 -6 -20 -6 -2 0 -4 -6 -4 -13 0 -8 -11 -24 -25 -37 -14 -13 -25 -29 -25
-37 0 -8 -11 -13 -27 -13 -19 0 -37 -10 -55 -32 -21 -25 -28 -29 -28 -15 0 9
-7 17 -16 17 -12 0 -15 -6 -11 -23 7 -25 -43 -81 -102 -113 -18 -11 -48 -27
-65 -36 -43 -24 -85 -22 -113 4 -13 12 -35 22 -50 23 -35 0 -51 26 -34 58 9
17 20 23 37 21 15 -1 24 3 24 11 0 20 21 30 30 14 5 -7 6 -17 4 -21 -3 -4 0
-8 6 -8 6 0 13 7 16 15 4 8 13 15 21 15 9 0 13 -6 9 -15 -3 -9 0 -15 8 -15 9
0 12 7 9 19 -3 11 2 21 12 25 24 9 38 -3 32 -26 -4 -14 -2 -18 10 -14 8 3 19
6 24 6 6 0 7 5 3 12 -5 7 -2 9 8 6 15 -6 68 63 68 89 0 8 12 13 30 13 24 0 33
-6 41 -28 l11 -27 13 24 c11 22 10 27 -9 41 -11 10 -27 19 -34 21 -9 3 -9 9 3
27 23 32 41 27 59 -18 9 -22 17 -40 18 -40 2 0 3 16 3 37 0 41 21 57 28 21 3
-15 5 -10 6 15 1 25 6 37 15 37 8 0 16 -5 18 -12 2 -6 13 7 24 29 17 34 18 40
5 35 -9 -3 -21 -9 -26 -13 -6 -4 -17 -4 -24 1 -11 6 -8 18 15 57 16 26 36 60
43 75 17 32 20 33 47 13 16 -12 17 -16 4 -24 -8 -5 -17 -8 -20 -6 -4 2 -6 -15
-6 -40 l1 -43 18 29 c11 16 25 29 33 29 16 0 19 -26 4 -35 -13 -8 -63 -86 -58
-90 2 -2 12 9 23 26 11 16 26 29 33 29 22 0 53 40 47 61 -4 10 -1 35 5 55 10
30 16 35 38 32 19 -2 27 -8 26 -21 -2 -23 3 -17 24 24 10 18 24 34 33 35 10 1
30 9 45 18 16 8 47 24 69 34 45 22 161 141 148 152 -4 4 -33 12 -64 19 -31 7
-65 21 -74 31 -10 11 -22 17 -26 14 -5 -3 -22 4 -37 16 -25 21 -27 21 -31 4
-2 -10 -11 -24 -20 -30 -14 -11 -18 -3 -37 62 -12 41 -27 81 -34 89 -10 12
-10 15 1 15 8 -1 26 -18 40 -39 36 -51 165 -130 227 -138 26 -3 55 -13 65 -21
11 -10 17 -11 17 -4 0 14 104 15 135 2 14 -6 -3 -9 -54 -9 l-73 -1 4 -37 c4
-31 -1 -45 -29 -81 -18 -24 -36 -56 -39 -70 -8 -42 -18 -56 -53 -73 -41 -21
-43 -32 -9 -33 36 -2 44 -12 51 -61 8 -56 -46 -165 -89 -180 -24 -8 -29 -15
-26 -40 2 -22 -9 -48 -41 -95 -66 -99 -65 -101 12 -20 89 93 178 223 186 270
3 19 17 51 30 71 16 21 25 49 25 72 0 26 8 46 30 70 17 19 30 38 30 42 0 4 30
35 68 70 l67 63 -35 15 c-30 13 -31 15 -12 16 13 1 33 -4 45 -11 12 -6 58 -13
101 -15 44 -1 84 -7 90 -13 14 -14 36 -102 31 -126 -2 -10 -4 -31 -4 -46 -1
-16 -5 -28 -11 -28 -6 0 -10 30 -10 70 0 62 -2 70 -19 70 -26 0 -46 -28 -43
-57 2 -13 -1 -29 -6 -36 -5 -7 -15 -66 -21 -132 -6 -66 -18 -160 -27 -210 -23
-134 -41 -247 -59 -365 -9 -58 -23 -133 -31 -166 -9 -34 -17 -88 -19 -120 -2
-33 -7 -68 -11 -78 -6 -17 -4 -18 21 -12 l28 7 -6 -55 c-3 -31 -2 -58 3 -61 5
-3 11 14 13 37 2 28 4 15 6 -37 4 -108 14 -186 24 -183 5 2 10 53 11 113 2 61
6 126 10 145 7 31 5 36 -16 45 -21 9 -23 16 -24 98 -2 83 2 105 30 182 6 17
10 34 8 38 -4 12 28 67 39 67 5 0 17 -17 25 -37 9 -21 32 -55 51 -75 32 -33
35 -41 30 -76 -4 -36 -1 -44 29 -73 l34 -33 -21 -20 -22 -19 27 -19 c24 -18
26 -25 26 -94 0 -66 2 -74 19 -74 20 0 37 -28 24 -41 -7 -6 -58 -15 -128 -21
-11 -1 -30 1 -42 6 -22 7 -22 6 -20 -64 1 -65 2 -68 12 -40 6 18 22 38 35 46
29 16 82 18 96 4 6 -6 24 -4 49 4 26 9 64 12 112 9 92 -7 89 -2 117 -218 7
-60 11 -125 8 -144 -4 -29 -2 -32 14 -29 11 2 17 11 15 19 -2 8 -6 91 -9 186
l-4 171 28 15 c22 11 61 15 156 14 124 -2 127 -1 138 21 17 39 13 55 -12 47
-69 -23 -223 -19 -255 7 -7 6 -14 5 -18 -2 -11 -18 -35 -11 -44 13 -16 40 -31
300 -36 591 -3 154 -7 353 -10 441 -5 143 2 264 20 351 5 26 5 27 -5 6 -5 -13
-16 -22 -22 -20 -18 6 -22 46 -8 64 17 19 40 18 41 -3 0 -10 5 -3 10 15 7 22
16 32 29 32 27 0 33 -42 29 -199 -2 -72 -1 -131 2 -131 3 0 9 37 12 81 4 50
14 98 27 124 11 23 20 48 20 56 0 24 30 59 49 59 30 0 43 -26 46 -91 2 -33 6
-64 9 -67 6 -5 11 38 8 72 -3 32 37 152 57 170 11 10 23 30 26 46 17 76 156
140 252 114 22 -6 22 -6 3 -42 -10 -21 -21 -57 -24 -82 l-6 -45 20 30 c11 17
20 35 20 40 0 6 26 35 58 65 51 48 57 58 58 97 1 30 -5 52 -21 73 -17 23 -21
38 -16 58 6 20 0 38 -25 77 -18 27 -42 65 -53 83 -12 18 -21 44 -21 57 0 13
-3 26 -7 28 -5 3 -6 -51 -4 -119 3 -123 -2 -142 -29 -109 -20 24 -30 17 -19
-12 12 -33 5 -53 -20 -53 -10 0 -26 -11 -34 -24 -19 -28 -100 -44 -125 -24
-23 20 -11 220 16 273 12 22 24 52 27 68 3 15 19 42 35 60 30 31 30 32 46 12
12 -15 15 -35 11 -75 -2 -30 -2 -61 0 -67 7 -20 25 -15 19 5 -11 38 -11 157 0
157 6 0 24 15 39 33 25 30 28 31 41 15 12 -17 13 -16 14 8 0 15 7 32 15 39 14
12 13 16 -9 39 -14 14 -31 41 -39 59 l-13 32 -50 -25 c-64 -33 -78 -32 -101 8
-35 61 -47 113 -34 146 11 24 10 39 -3 84 -18 62 -21 153 -6 162 17 11 86 -57
99 -96 6 -20 11 -54 11 -75 1 -36 2 -38 15 -20 8 10 16 24 18 30 6 16 74 -65
81 -96 3 -18 13 -28 28 -30 20 -3 23 -9 25 -53 0 -27 8 -66 17 -85 l15 -35 1
63 c0 51 6 73 30 117 17 30 30 60 30 67 0 7 -21 27 -46 43 -65 43 -84 74 -86
136 0 40 4 55 18 66 17 13 15 14 -21 11 -33 -2 -41 1 -51 21 -7 13 -27 30 -46
38 -54 24 -61 29 -69 44 -40 81 -41 85 -37 172 1 48 2 87 1 87 -1 0 -11 -19
-22 -42 -11 -24 -31 -53 -45 -66 -21 -18 -25 -27 -19 -50 7 -29 8 -36 5 -94
l-2 -38 -21 21 c-11 11 -26 34 -33 49 -10 25 -12 14 -11 -78 0 -91 -3 -114
-22 -151 l-22 -44 23 -22 c18 -16 23 -33 24 -80 1 -33 7 -81 14 -106 8 -33 8
-58 1 -87 -8 -32 -8 -44 2 -52 17 -14 27 -84 28 -195 1 -70 -2 -96 -16 -115
-9 -13 -17 -34 -17 -47 0 -58 -100 -142 -135 -113 -19 16 -29 84 -15 109 9 18
8 21 -10 21 -30 0 -77 27 -90 50 -8 15 -21 20 -50 20 -33 0 -43 6 -67 38 -39
51 -73 124 -73 156 0 23 4 27 23 24 19 -3 22 1 19 30 -6 54 8 113 25 110 10
-2 22 17 38 61 13 35 35 75 49 89 l25 25 7 -29 c7 -26 -3 -63 -39 -154 -4 -10
14 -31 54 -64 55 -44 60 -52 55 -78 -5 -25 -3 -28 13 -23 11 3 22 1 25 -4 4
-5 32 -24 64 -42 31 -18 60 -37 64 -43 5 -7 8 -5 8 5 0 9 -7 19 -15 23 -8 3
-15 10 -15 15 0 5 -15 24 -34 43 -41 41 -55 107 -36 171 10 36 10 42 -5 53
-27 20 -35 78 -19 131 18 60 15 69 -18 44 -36 -28 -45 -4 -13 35 23 28 23 30
6 49 -10 11 -23 35 -29 53 -10 29 -8 34 15 57 25 22 27 29 25 102 -2 76 19
188 39 207 12 13 12 26 -1 26 -5 0 -13 -12 -16 -27 -4 -16 -18 -44 -31 -63
-12 -19 -23 -39 -23 -45 0 -11 -41 -113 -54 -133 -4 -7 -19 -18 -33 -23 -17
-6 -23 -14 -19 -26 9 -23 -30 -98 -59 -111 -15 -7 -25 -20 -25 -32 0 -38 -38
-96 -94 -145 -52 -44 -55 -50 -58 -99 -3 -47 -5 -51 -28 -50 -14 1 -28 -3 -31
-9 -4 -5 -13 1 -20 14 -24 46 -64 89 -83 89 -26 0 -101 59 -121 95 -8 17 -13
21 -9 10 3 -11 8 -72 11 -135 3 -63 9 -119 13 -124 12 -13 23 32 16 68 -4 23
-2 37 8 45 12 10 19 5 37 -30 12 -24 30 -55 41 -70 18 -24 23 -59 16 -114 -2
-14 2 -19 13 -17 39 6 67 -77 41 -124 -7 -12 -5 -27 4 -50 8 -18 14 -52 14
-74 0 -22 5 -40 10 -40 6 0 10 12 10 26 0 14 5 34 10 45 14 25 50 25 50 0 0
-11 12 -23 29 -31 40 -16 55 -59 31 -90 -11 -14 -22 -20 -30 -15 -7 4 -30 2
-51 -5 -35 -12 -41 -11 -53 5 -12 17 -13 16 -20 -8 -6 -25 -26 -38 -26 -18 0
16 -100 34 -155 27 -29 -3 -74 -15 -100 -26 -56 -24 -55 -24 -55 -5 0 18 -1
18 -35 5 -21 -8 -33 -6 -56 7 -15 9 -31 15 -33 12 -3 -2 -1 -22 4 -44 17 -74
13 -109 -19 -139 l-30 -29 36 -33 c34 -32 67 -38 42 -8 -10 12 -9 13 4 8 9 -3
23 -17 32 -30 17 -27 35 -32 35 -9 0 8 -4 15 -9 15 -11 0 -31 55 -31 86 0 17
6 24 20 24 11 0 20 5 20 10 0 6 6 10 13 10 7 0 14 -14 15 -32 2 -18 10 -40 18
-49 9 -10 13 -23 9 -28 -10 -18 -23 -13 -31 12 -4 12 -13 31 -21 42 -14 19
-15 19 -8 -5 13 -53 40 -100 57 -100 10 0 27 13 39 30 34 45 97 86 111 72 9
-9 0 -23 -35 -59 -51 -51 -48 -64 13 -56 42 6 140 -14 140 -28 0 -21 31 -6 57
26 30 39 85 71 102 60 6 -3 11 0 11 8 0 23 35 61 49 53 7 -5 9 -12 3 -19 -18
-23 -21 -58 -6 -64 9 -3 12 -13 9 -23 -3 -10 -1 -21 5 -25 15 -9 12 -35 -5
-35 -8 0 -15 5 -15 10 0 6 -11 16 -25 22 -28 12 -33 28 -10 28 8 0 15 3 15 8
0 6 -47 8 -87 3 -7 0 -13 -9 -13 -18 -1 -24 -34 -63 -55 -63 -8 0 -32 8 -53
19 -31 15 -47 17 -102 10 -36 -4 -78 -6 -95 -3 -16 2 -43 7 -60 9 -59 8 -110
22 -135 35 -41 22 -97 80 -120 128 -21 40 -22 49 -11 97 20 88 73 120 141 85
l41 -21 42 23 c61 33 71 45 46 51 -39 10 -8 27 50 27 39 0 63 5 71 14 10 12 8
15 -12 14 -58 -4 -138 3 -138 11 0 5 16 12 36 16 34 6 90 38 106 60 14 18 8
26 -12 20 -11 -4 -20 -2 -20 4 0 6 -20 11 -46 11 -47 0 -114 25 -114 41 0 6 9
5 20 -1 26 -14 45 -3 29 16 -19 23 -14 155 7 195 10 20 18 60 19 99 3 88 16
170 26 170 5 0 9 8 9 18 0 25 40 42 100 42 l50 0 0 -55 c0 -30 3 -55 6 -55 3
0 20 14 36 32 29 31 31 32 44 13 8 -10 14 -38 14 -62 0 -58 14 -54 35 9 9 29
25 61 35 72 80 91 115 126 126 126 8 0 14 5 14 11 0 5 14 15 30 20 29 11 30
13 30 70 0 38 6 69 16 84 9 13 14 30 12 36 -2 7 -17 -14 -34 -47 -27 -56 -34
-61 -113 -101 -116 -59 -161 -57 -161 7 0 10 -10 26 -21 34 -19 13 -21 21 -15
56 3 22 13 60 21 82 8 23 13 44 11 46 -5 4 -73 -105 -93 -150 -10 -22 -25 -39
-38 -42 -16 -4 -29 -23 -45 -60 -25 -63 -52 -91 -76 -82 -14 5 -16 16 -11 59
l6 52 -20 -41 c-15 -30 -25 -41 -38 -37 -14 4 -16 -1 -13 -30 3 -25 -2 -41
-20 -62 -22 -25 -23 -32 -15 -89 11 -80 -2 -121 -37 -112 l-24 6 20 -53 c16
-40 19 -66 14 -115 -3 -34 -10 -70 -15 -80 -7 -12 -5 -22 5 -34 14 -15 11 -16
-38 -16 -125 0 -172 -25 -217 -117 -18 -36 -38 -68 -45 -72 -7 -5 -28 -50 -45
-102 -26 -75 -31 -103 -26 -140 3 -25 6 -64 7 -86 0 -22 11 -60 24 -84 14 -24
22 -47 19 -50 -3 -3 -31 20 -61 50 l-55 55 0 94 c-1 88 1 97 35 162 20 38 36
82 36 98 0 16 7 45 16 64 14 29 19 32 30 21 8 -7 14 -19 14 -25 0 -29 25 2 44
53 16 46 25 59 46 63 27 6 76 29 104 49 16 13 16 15 -3 54 -27 51 -26 57 4 93
16 19 23 37 20 49 -4 10 -2 26 3 35 6 10 6 29 0 48 -15 47 23 166 62 200 l30
25 -21 15 -21 15 25 68 c14 37 41 113 62 168 36 100 56 163 35 115 -6 -13 -15
-27 -19 -30 -5 -3 -19 -27 -33 -55 -13 -27 -43 -81 -66 -120 -23 -38 -43 -83
-46 -99 -3 -15 -21 -49 -41 -74 -20 -25 -38 -58 -41 -72 -3 -14 -10 -36 -17
-50 -6 -14 -11 -66 -12 -116 -2 -81 -5 -98 -31 -143 -45 -79 -96 -140 -124
-147 -14 -4 -35 -15 -47 -26 -21 -20 -21 -20 -32 0 -6 12 -11 30 -11 42 0 12
-9 34 -20 49 -29 41 -32 79 -10 101 19 19 19 20 0 53 -40 67 -13 279 36 289
11 2 16 18 18 59 2 34 11 73 25 99 12 23 20 44 18 47 -8 8 -47 -54 -47 -75 0
-10 -25 -56 -55 -101 -31 -46 -57 -98 -60 -116 -2 -18 -9 -42 -14 -52 -6 -10
-20 -41 -30 -69 -22 -56 -15 -79 24 -86 29 -5 32 -60 6 -97 -12 -16 -21 -41
-21 -56 0 -15 -4 -24 -10 -20 -15 10 -12 37 10 80 11 22 20 44 20 51 0 16 -65
64 -87 64 -47 1 -58 37 -38 121 16 68 19 133 9 214 -5 42 -10 51 -27 52 -12 1
-27 -3 -34 -8 -19 -16 -33 -1 -33 35 0 25 7 38 25 50 14 9 25 23 25 30 0 8 6
26 14 40 15 30 11 59 -10 77 -22 18 -16 49 16 86 21 23 30 44 30 68 0 18 6 36
13 38 7 4 6 6 -4 6 -22 1 -57 -27 -72 -59 -9 -19 -22 -26 -50 -28 -50 -4 -71
-36 -62 -91 5 -33 3 -44 -14 -62 -29 -32 -27 -44 19 -99 35 -42 39 -51 30 -74
-7 -21 -16 -26 -42 -26 -18 0 -41 -7 -51 -14 -15 -12 -15 -15 -2 -26 11 -9 14
-34 12 -120 -3 -87 -1 -107 10 -103 10 4 11 9 3 18 -7 8 -7 16 -2 19 6 3 15
-1 21 -8 8 -10 9 -16 1 -21 -5 -3 -10 -15 -10 -26 0 -20 -15 -26 -25 -9 -3 6
-18 -4 -32 -21 -23 -27 -31 -30 -61 -25 -37 6 -82 40 -82 63 0 7 -5 13 -11 13
-7 0 -8 -7 -4 -17 21 -52 25 -86 21 -163 l-5 -85 12 64 c7 36 18 66 25 69 7 2
19 -12 27 -32 20 -46 10 -111 -19 -132 -17 -12 -18 -16 -7 -23 30 -19 -25
-131 -64 -131 -6 0 -24 -13 -40 -30 -16 -16 -34 -30 -41 -30 -6 0 -26 -13 -44
-30 -18 -16 -36 -30 -42 -30 -5 0 -23 -13 -40 -30 -30 -31 -52 -38 -63 -20 -4
7 -14 6 -28 -2 -21 -12 -27 -14 -54 -17 -6 0 -21 -27 -33 -58 -12 -31 -32 -68
-45 -80 -22 -22 -24 -23 -29 -6 -3 11 -10 52 -15 93 -10 74 -10 75 -66 127
-31 29 -54 57 -50 63 3 6 -8 18 -25 28 -40 22 -47 51 -22 91 14 23 18 44 15
70 -5 38 15 100 59 184 11 21 18 48 15 60 -3 12 -3 37 1 56 7 30 9 32 21 17
11 -13 11 -22 2 -42 -6 -14 -10 -51 -10 -82 1 -31 4 -46 6 -32 3 14 14 37 24
51 12 17 19 44 19 71 0 23 4 49 9 57 5 8 3 34 -5 64 -11 44 -11 61 3 121 9 41
24 78 37 90 12 13 20 32 18 46 -2 21 6 29 55 53 80 38 97 36 111 -12 7 -21 10
-60 7 -87 -3 -27 -3 -42 1 -34 3 8 10 25 16 37 6 12 7 33 3 50 -12 41 -6 80
17 119 18 30 18 35 4 40 -21 8 -20 30 3 60 23 29 31 22 31 -27 0 -20 5 -39 11
-41 7 -2 7 -17 1 -45 -6 -27 -6 -45 0 -51 7 -7 7 -33 1 -76 -7 -48 -6 -63 1
-56 6 6 12 48 12 93 2 101 9 138 35 189 29 56 43 37 48 -65 4 -74 5 -77 11
-37 4 24 3 62 -2 85 -13 55 -2 133 31 235 31 94 66 135 96 110 8 -7 16 -27 16
-44 1 -27 3 -25 11 14 12 54 13 58 36 90 46 68 235 260 255 260 8 0 22 9 32
20 27 30 3 24 -40 -10z m-480 -576 c-8 -20 -15 -45 -15 -56 0 -23 -24 -19 -28
5 -4 19 35 87 49 87 5 0 2 -16 -6 -36z m468 -216 c-9 -10 -17 -28 -18 -41 -3
-34 -44 -32 -78 5 -15 17 -26 32 -24 34 2 2 20 -2 39 -10 33 -14 37 -14 52 3
9 10 16 28 16 42 1 23 1 23 15 5 13 -17 13 -22 -2 -38z m-71 27 c0 -5 -5 -11
-11 -13 -6 -2 -11 4 -11 13 0 9 5 15 11 13 6 -2 11 -8 11 -13z m112 -242 c14
-106 -2 -213 -32 -213 -12 0 -14 13 -8 79 5 60 3 81 -7 90 -18 15 -27 4 -27
-33 0 -17 -4 -37 -9 -45 -13 -20 -24 4 -16 39 4 19 1 37 -11 55 -15 23 -22 26
-51 20 -32 -6 -34 -4 -37 28 -1 14 49 23 135 24 l57 1 6 -45z m-135 -67 c6 -8
11 -18 9 -22 -5 -17 21 -74 36 -80 21 -8 42 -54 38 -81 -3 -22 -22 -33 -22
-13 0 6 -6 10 -13 10 -7 0 -18 9 -25 20 -7 12 -18 17 -28 13 -14 -5 -16 -1
-12 21 4 19 -1 32 -18 49 -25 23 -32 43 -11 31 8 -5 8 -2 -2 9 -16 20 -2 23
19 5 8 -7 4 -1 -9 14 -24 27 -23 29 20 37 4 0 12 -5 18 -13z m-9 -261 c7 -8
10 -21 7 -30 -4 -8 6 -28 20 -45 18 -22 23 -34 15 -42 -17 -17 -47 -5 -50 21
-2 13 -12 37 -23 55 -10 17 -19 37 -19 44 0 17 35 15 50 -3z m-68 -32 c24 -21
23 -48 -2 -66 -12 -8 -20 -18 -19 -23 4 -23 -3 -32 -22 -27 -18 5 -19 11 -14
57 6 47 19 76 33 76 3 0 14 -7 24 -17z m213 -22 c66 -30 77 -47 56 -80 -8 -12
-13 -9 -28 17 -16 28 -22 31 -57 27 -63 -6 -85 15 -53 50 15 18 7 20 82 -14z
m-5 -56 c9 -10 9 -15 1 -15 -6 0 -11 5 -11 11 0 6 -7 9 -15 5 -8 -3 -15 -1
-15 4 0 15 26 12 40 -5z m-1175 -6 c10 -15 34 -119 35 -146 0 -30 -18 -29 -30
1 -5 13 -17 30 -28 37 -32 24 -43 53 -31 88 11 31 41 42 54 20z m1093 -43 c2
-10 -3 -23 -12 -28 -8 -5 -13 -15 -9 -24 8 -22 32 13 33 49 0 24 4 28 23 25
19 -3 22 -10 25 -60 2 -38 -2 -68 -13 -88 -21 -40 -43 -39 -48 3 -2 17 -5 2
-5 -35 -1 -45 2 -68 11 -72 10 -5 10 -7 0 -12 -7 -3 -13 -13 -13 -21 0 -11 -6
-14 -22 -9 -13 3 -26 6 -30 6 -5 0 -8 7 -8 15 0 21 -17 19 -30 -5 -15 -29 -32
-25 -28 8 3 23 8 27 39 30 23 2 40 -2 49 -12 14 -18 30 -21 30 -7 0 5 -9 13
-20 16 -15 5 -20 16 -21 43 -1 27 -3 31 -6 12 -8 -44 -26 -50 -20 -6 4 21 1
48 -4 59 -7 12 -7 17 -1 13 6 -3 13 7 17 24 4 16 11 30 17 30 6 0 3 9 -7 20
-24 27 -13 52 22 48 18 -2 29 -10 31 -22z m-174 -6 c14 -5 26 -17 26 -25 0
-12 -10 -15 -50 -13 -27 2 -50 5 -50 7 0 8 33 41 41 41 4 0 19 -4 33 -10z
m-814 -30 c0 -15 -7 -20 -25 -20 -27 0 -32 9 -13 28 18 18 38 14 38 -8z m1135
0 c-3 -5 -13 -10 -21 -10 -8 0 -12 5 -9 10 3 6 13 10 21 10 8 0 12 -4 9 -10z
m51 -69 c-21 -39 -21 -97 -1 -105 12 -4 14 -19 11 -72 -3 -55 -8 -71 -32 -97
-16 -18 -30 -34 -31 -36 -2 -2 -5 -2 -8 1 -9 9 14 60 33 74 14 11 15 16 5 33
-11 17 -10 22 7 34 20 14 20 14 -2 42 -27 34 -26 85 3 131 10 17 20 40 20 50
1 15 3 15 6 -3 2 -12 -3 -35 -11 -52z m-64 2 c-2 -24 -8 -43 -13 -43 -14 0
-11 59 4 74 15 17 15 19 9 -31z m-1106 12 c-21 -16 -32 -13 -21 4 3 6 14 11
23 11 15 -1 15 -2 -2 -15z m777 -92 c-3 -40 -10 -73 -16 -73 -5 0 -4 -6 2 -14
15 -18 4 -66 -15 -66 -11 0 -14 14 -12 58 1 31 5 62 9 67 4 6 8 33 10 60 3 57
9 73 19 54 5 -8 6 -47 3 -86z m97 76 c0 -5 -4 -9 -10 -9 -5 0 -10 7 -10 16 0
8 5 12 10 9 6 -3 10 -10 10 -16z m861 -28 c32 -17 78 -31 114 -35 109 -12 126
-21 78 -44 -18 -8 -30 -9 -37 -2 -5 5 -24 10 -41 9 -16 0 -23 -3 -15 -6 46
-15 46 -15 25 -23 -30 -13 -115 -12 -115 1 0 6 9 13 20 16 27 7 25 15 -8 33
-23 13 -35 14 -79 4 -49 -11 -52 -10 -57 10 -3 11 -1 23 4 24 6 2 8 8 4 13 -9
15 6 29 30 29 12 0 47 -13 77 -29z m-896 -37 c13 -31 13 -39 0 -57 -16 -23 -4
-57 20 -57 8 0 15 -4 15 -10 0 -5 -5 -10 -12 -10 -7 0 -24 -12 -39 -26 l-26
-25 -5 25 c-3 13 -2 30 2 36 4 6 3 34 -1 61 -8 51 2 99 21 99 5 0 16 -16 25
-36z m217 5 c-6 -15 -5 -30 2 -41 12 -19 9 -25 -18 -30 -10 -1 -23 4 -29 14
-8 13 -4 23 19 50 33 40 38 41 26 7z m-1146 -51 c7 -24 -7 -41 -28 -33 -16 6
-41 82 -32 97 7 10 51 -38 60 -64z m1184 22 c0 -5 -5 -10 -11 -10 -5 0 -7 5
-4 10 3 6 8 10 11 10 2 0 4 -4 4 -10z m580 -32 c0 -33 -13 -49 -30 -38 -12 7
-12 12 0 34 17 32 30 33 30 4z m-1642 -10 c7 -7 12 -21 12 -32 0 -20 -2 -19
-20 4 -11 14 -20 28 -20 33 0 11 15 8 28 -5z m1057 -32 c-3 -25 -9 -66 -15
-92 -8 -33 -8 -50 0 -58 12 -12 13 -26 1 -26 -10 0 -31 76 -31 111 0 12 7 31
17 41 15 17 15 18 0 18 -10 0 -17 3 -17 7 0 9 32 43 41 43 4 0 6 -20 4 -44z
m205 30 c0 -16 -18 -31 -27 -22 -8 8 5 36 17 36 5 0 10 -6 10 -14z m425 -6
c-3 -5 -10 -10 -16 -10 -5 0 -9 5 -9 10 0 6 7 10 16 10 8 0 12 -4 9 -10z
m-734 -37 c-12 -20 -14 -14 -5 12 4 9 9 14 11 11 3 -2 0 -13 -6 -23z m354 0
c-4 -16 -8 -30 -10 -31 -8 -8 -25 10 -25 27 0 21 9 31 28 31 10 0 12 -7 7 -27z
m-305 -29 c0 -35 -13 -46 -24 -18 -8 21 4 65 15 58 5 -3 9 -21 9 -40z m560 36
c0 -5 -4 -10 -10 -10 -5 0 -10 5 -10 10 0 6 5 10 10 10 6 0 10 -4 10 -10z m44
-15 c-4 -8 -10 -12 -15 -9 -11 6 -2 24 11 24 5 0 7 -7 4 -15z m-1564 -5 c0 -5
-2 -10 -4 -10 -3 0 -8 5 -11 10 -3 6 -1 10 4 10 6 0 11 -4 11 -10z m1394 -5
c-6 -16 -24 -21 -24 -7 0 11 11 22 21 22 5 0 6 -7 3 -15z m-519 -28 c4 -13 -3
-44 -15 -72 -13 -32 -15 -43 -5 -31 8 11 15 25 15 32 0 7 7 20 17 29 15 16 18
14 35 -21 11 -22 16 -49 13 -64 -3 -14 1 -37 9 -53 14 -25 13 -29 -9 -55 -22
-25 -25 -26 -41 -10 -10 10 -17 31 -16 51 1 27 -4 36 -23 45 -21 10 -25 19
-25 54 0 51 17 118 30 118 5 0 12 -10 15 -23z m354 0 c8 -10 5 -21 -13 -45
-12 -18 -26 -29 -29 -25 -12 12 -7 46 10 65 19 22 18 21 32 5z m-1166 -50 c23
-46 12 -70 -13 -30 -10 16 -21 40 -25 52 -12 37 17 21 38 -22z m627 -6 c0 -20
-6 -30 -20 -34 -16 -4 -20 0 -20 18 0 19 20 43 38 45 1 0 2 -13 2 -29z m750
10 c17 -33 11 -47 -10 -21 -11 14 -20 28 -20 33 0 14 20 7 30 -12z m-629 -91
c1 -54 -29 -141 -38 -113 -2 7 -10 10 -17 7 -17 -6 -41 22 -26 31 5 3 10 18 9
33 l-1 27 -8 -25 -8 -25 -7 23 c-4 12 -11 22 -16 22 -5 0 -9 7 -9 15 0 18 12
19 27 4 7 -7 12 -2 17 18 4 15 19 41 34 56 26 28 26 28 34 6 5 -12 9 -48 9
-79z m614 42 c38 -43 42 -63 8 -43 -40 23 -56 41 -59 66 -3 33 3 30 51 -23z
m-1185 29 c0 -5 -7 -14 -15 -21 -12 -10 -15 -10 -15 2 0 8 3 18 7 21 9 10 23
9 23 -2z m375 -6 c0 -13 -41 -19 -63 -10 -15 6 -15 8 3 16 25 10 60 7 60 -6z
m1353 -45 c-4 -45 17 -57 28 -15 3 14 10 25 15 25 12 0 11 -9 -7 -64 -11 -32
-21 -46 -30 -42 -9 4 -14 -2 -14 -17 -1 -21 -1 -21 -15 3 l-13 25 -8 -29 c-7
-28 -8 -28 -22 -10 -14 18 -14 18 -10 -2 4 -14 -2 -25 -15 -34 -18 -11 -23 -9
-44 16 -13 16 -23 32 -23 37 0 9 42 -13 52 -28 9 -12 10 -2 2 19 -3 9 -13 16
-21 16 -12 0 -14 12 -11 60 2 33 7 61 13 63 5 1 8 -19 6 -48 -3 -54 15 -54 21
-1 3 30 28 50 28 22 0 -10 6 -13 15 -10 11 5 15 -1 15 -20 0 -36 15 -33 17 4
4 57 7 70 16 70 5 0 7 -18 5 -40z m-32 3 c-10 -10 -19 5 -10 18 6 11 8 11 12
0 2 -7 1 -15 -2 -18z m-1386 7 c0 -5 -6 -10 -14 -10 -8 0 -23 -3 -33 -6 -16
-5 -16 -4 1 10 22 18 46 21 46 6z m537 4 c-3 -3 -12 -4 -19 -1 -8 3 -5 6 6 6
11 1 17 -2 13 -5z m361 -54 c5 0 15 -6 21 -14 9 -11 9 -19 -1 -35 -7 -12 -18
-21 -23 -21 -24 0 -115 53 -115 67 0 11 6 10 29 -6 16 -12 35 -21 43 -21 8 0
19 -5 26 -12 9 -9 12 -9 12 0 0 7 -20 21 -44 32 -49 20 -61 34 -52 56 5 12 14
9 50 -15 25 -17 49 -31 54 -31z m-1025 30 c-10 -11 -23 -20 -30 -20 -27 0
-101 -92 -108 -134 -5 -23 -9 -45 -10 -51 -1 -5 -3 -18 -3 -27 -1 -10 -6 -18
-10 -18 -4 0 -6 30 -4 67 5 67 5 68 61 124 57 57 86 78 108 79 9 0 7 -7 -4
-20z m770 -77 c9 -26 17 -65 17 -86 0 -54 -67 -123 -171 -176 l-79 -40 -122 2
c-116 2 -128 4 -215 40 -94 37 -143 70 -143 94 0 7 16 27 36 45 49 45 64 53
64 33 0 -9 -10 -19 -22 -24 -24 -9 -32 -47 -10 -56 7 -3 27 4 43 16 40 28 52
14 14 -16 -16 -13 -26 -28 -22 -32 5 -4 11 -3 15 3 29 45 61 72 80 67 22 -5
36 -41 23 -57 -14 -19 -21 -46 -12 -46 11 0 33 59 26 70 -8 13 38 20 52 8 7
-6 13 -18 14 -27 0 -12 2 -11 8 4 5 11 7 23 4 28 -2 4 0 7 6 7 9 0 16 -25 24
-95 3 -20 5 -13 7 20 2 45 3 47 10 20 7 -29 8 -30 9 -4 2 38 39 47 52 13 5
-14 9 -34 9 -45 0 -10 5 -19 10 -19 9 0 7 28 -6 69 -3 8 1 11 11 7 12 -4 14 2
12 27 -2 30 0 32 33 32 30 0 37 -5 57 -40 22 -39 33 -33 12 6 -19 37 -2 45 19
9 12 -19 22 -30 22 -25 0 6 -9 25 -20 43 -16 25 -25 32 -40 27 -30 -9 -24 4 7
16 23 9 30 6 60 -23 19 -18 31 -25 28 -16 -4 9 -18 24 -31 33 -13 8 -24 20
-24 25 0 19 34 10 62 -17 28 -26 29 -27 46 -8 14 16 15 17 0 6 -13 -10 -18 -9
-25 2 -4 8 -20 22 -35 31 -21 14 -31 15 -47 6 -19 -10 -21 -8 -20 17 2 42 9
63 21 63 6 0 8 -12 5 -28 -5 -27 -3 -29 25 -30 16 0 39 -8 49 -18 10 -9 19
-13 19 -8 0 16 -23 34 -41 34 -10 0 -21 5 -25 12 -5 8 2 9 24 5 25 -5 32 -3
37 14 4 11 4 24 0 27 -7 7 -10 8 -52 12 -19 1 -22 4 -10 7 9 2 17 11 17 19 0
32 65 -34 83 -83z m862 45 c-18 -28 -30 -38 -33 -29 -3 8 3 20 12 27 9 6 15
18 14 25 -2 8 3 13 10 12 6 -2 12 2 12 9 0 6 3 8 6 5 4 -4 -6 -26 -21 -49z
m585 36 c0 -17 -22 -14 -28 4 -2 7 3 12 12 12 9 0 16 -7 16 -16z m-2073 -16
c-3 -8 -6 -5 -6 6 -1 11 2 17 5 13 3 -3 4 -12 1 -19z m113 -14 c0 -27 -17 -31
-45 -11 -17 13 -17 15 5 30 28 20 40 14 40 -19z m1835 6 c-5 -8 -11 -8 -17 -2
-6 6 -7 16 -3 22 5 8 11 8 17 2 6 -6 7 -16 3 -22z m-1505 5 c0 -8 5 -15 10
-15 6 0 10 -4 10 -10 0 -14 -27 -12 -34 3 -3 8 -9 6 -20 -7 -21 -26 -21 -7 0
22 17 25 34 29 34 7z m-768 -59 c-4 -16 -7 -15 -19 8 -12 23 -12 30 -1 43 11
14 13 13 19 -8 3 -13 3 -32 1 -43z m292 42 c3 -13 6 -36 7 -53 1 -20 3 -23 6
-10 2 11 6 30 9 43 8 40 20 23 22 -33 2 -45 -1 -57 -15 -62 -42 -16 -103 -66
-109 -89 -6 -25 -39 -54 -61 -54 -18 0 -53 41 -53 62 0 24 8 23 30 -4 18 -23
18 -22 13 25 -6 51 11 68 23 22 3 -14 10 -25 15 -25 6 0 5 8 -1 19 -12 24 -13
61 -1 61 5 0 12 -6 15 -12 3 -7 5 -4 5 7 -2 39 1 55 11 55 6 0 11 -10 11 -22
1 -15 4 -11 8 11 9 49 31 52 32 4 l2 -38 6 40 c3 22 2 43 -3 46 -9 7 0 29 13
29 5 0 11 -10 15 -22z m-62 -10 c-7 -7 -12 -8 -12 -2 0 14 12 26 19 19 2 -3
-1 -11 -7 -17z m2158 -42 c10 -35 9 -51 -1 -80 -7 -20 -16 -36 -20 -36 -17 0
-39 47 -40 85 0 30 -2 35 -8 20 -8 -19 -8 -19 -20 3 -14 27 -6 62 15 62 8 0
14 -8 15 -17 0 -13 3 -12 10 6 13 32 33 14 49 -43z m16 37 c-10 -10 -19 5 -10
18 6 11 8 11 12 0 2 -7 1 -15 -2 -18z m-2037 -24 c-17 -10 -24 4 -14 29 6 16
7 16 17 -2 8 -14 7 -21 -3 -27z m516 31 c3 -5 -3 -10 -14 -10 -12 0 -21 5 -21
10 0 6 6 10 14 10 8 0 18 -4 21 -10z m633 -8 c2 -7 -3 -12 -12 -12 -9 0 -16 7
-16 16 0 17 22 14 28 -4z m-900 -4 c-6 -18 -28 -21 -28 -4 0 9 7 16 16 16 9 0
14 -5 12 -12z m-410 -10 c-3 -7 -13 -15 -24 -17 -16 -3 -17 -1 -5 13 16 19 34
21 29 4z m1348 -17 c1 -16 11 -41 23 -57 28 -35 19 -44 -14 -13 -16 15 -25 35
-25 55 0 24 6 44 14 44 1 0 1 -13 2 -29z m-1135 -4 c-13 -13 -26 -3 -16 12 3
6 11 8 17 5 6 -4 6 -10 -1 -17z m-475 -24 c-4 -21 -8 -44 -8 -50 -1 -7 -7 -13
-15 -13 -8 0 -13 12 -13 34 0 45 9 66 27 66 13 0 14 -7 9 -37z m684 17 c0 -5
-4 -10 -10 -10 -5 0 -10 5 -10 10 0 6 5 10 10 10 6 0 10 -4 10 -10z m-460 -19
c0 -11 -4 -22 -9 -25 -11 -7 -23 22 -15 35 9 16 24 10 24 -10z m619 7 c-1 -18
-17 -55 -19 -43 -1 6 -5 0 -10 -12 -10 -23 -26 -27 -100 -26 -21 1 -26 -1 -12
-4 12 -2 22 -8 22 -13 0 -5 2 -14 5 -22 4 -10 -7 -13 -43 -14 -39 0 -49 3 -48
15 1 9 -5 16 -11 17 -7 1 -16 3 -20 4 -5 2 -14 4 -22 4 -8 1 -16 7 -19 14 -2
8 7 12 30 12 40 0 54 -9 65 -37 6 -17 12 -20 23 -13 11 7 12 12 3 18 -14 9
-29 62 -17 62 5 0 18 -7 28 -15 28 -21 49 -19 76 10 13 14 29 25 37 25 7 0 13
7 13 15 0 8 5 15 10 15 6 0 10 -6 9 -12z m317 3 c11 9 23 9 53 -1 21 -7 48 -9
61 -5 19 6 22 4 17 -9 -4 -9 -1 -16 4 -16 6 0 9 -9 6 -19 -3 -13 2 -21 15 -25
14 -3 19 -10 14 -22 -5 -12 -2 -15 10 -10 13 5 15 2 11 -14 -3 -11 -1 -20 4
-20 5 0 9 7 9 15 0 27 18 16 22 -15 3 -18 -1 -35 -11 -45 -20 -20 -2 -19 27 1
22 15 47 11 36 -7 -10 -17 -107 -78 -116 -73 -13 8 -9 23 12 44 11 11 16 20
12 20 -5 0 -17 -9 -27 -20 -17 -19 -45 -27 -45 -13 0 14 44 53 61 53 10 0 21
5 24 10 3 6 -1 10 -11 10 -9 0 -22 7 -29 16 -9 13 -16 14 -31 7 -28 -15 -94
-25 -94 -15 0 5 19 16 42 25 52 21 47 29 -10 16 -42 -9 -92 -4 -92 10 0 4 18
8 40 9 39 3 90 17 90 25 0 3 -25 4 -55 3 -31 -1 -53 3 -52 9 1 6 27 9 57 8
l55 -1 -56 12 c-63 14 -79 22 -78 39 0 8 2 8 6 -1 4 -10 8 -10 19 -1z m334
-18 c0 -19 -3 -24 -10 -17 -6 6 -8 18 -4 27 9 24 14 21 14 -10z m826 -5 c22
-43 43 -146 37 -185 -6 -38 -16 -48 -65 -61 -31 -9 -42 -7 -59 7 -17 14 -21
28 -21 86 0 39 0 78 1 87 1 19 68 98 82 98 5 0 16 -14 25 -32z m21 12 c1 -11
-2 -18 -8 -15 -11 7 -12 35 -1 35 4 0 8 -9 9 -20z m-2437 -31 c0 -6 -4 -7 -10
-4 -5 3 -10 11 -10 16 0 6 5 7 10 4 6 -3 10 -11 10 -16z m530 11 c0 -5 -4 -10
-10 -10 -5 0 -10 5 -10 10 0 6 5 10 10 10 6 0 10 -4 10 -10z m1743 -46 c7 -63
2 -84 -20 -84 -13 0 -15 9 -9 46 3 26 6 57 6 70 0 47 17 23 23 -32z m349 21
c8 -31 -4 -55 -28 -55 -9 0 -14 11 -14 29 0 64 27 80 42 26z m-2332 15 c0 -5
-5 -10 -11 -10 -5 0 -7 5 -4 10 3 6 8 10 11 10 2 0 4 -4 4 -10z m320 -23 c53
-28 66 -51 23 -41 -15 4 -31 11 -34 17 -4 5 -11 7 -17 3 -6 -3 -13 -2 -17 4
-3 5 -27 -6 -55 -26 -43 -31 -49 -33 -47 -15 0 11 4 18 7 16 3 -2 21 5 40 16
22 11 28 18 18 19 -10 0 -18 5 -18 10 0 13 16 13 42 -1 18 -10 20 -9 15 5 -8
20 -8 20 43 -7z m1848 -12 c-3 -3 -9 2 -12 12 -6 14 -5 15 5 6 7 -7 10 -15 7
-18z m-2470 -34 c0 -21 2 -43 6 -49 10 -16 -17 -15 -32 0 -7 7 -12 21 -12 33
0 12 -5 26 -12 33 -9 9 -6 14 13 21 33 12 39 6 37 -38z m2516 -39 c-4 -12 -10
-22 -14 -22 -9 0 -19 58 -11 65 11 12 30 -21 25 -43z m-1322 -15 c50 -49 90
-136 91 -202 1 -88 -16 -198 -35 -232 -27 -44 -105 -65 -147 -38 -6 3 -11 2
-11 -4 0 -6 -6 -8 -14 -5 -9 3 -17 -3 -21 -16 -4 -12 -14 -20 -23 -19 -36 4
-47 -10 -46 -56 2 -45 1 -45 -32 -45 -28 0 -34 -4 -34 -21 0 -11 4 -18 9 -15
5 3 14 -1 21 -9 7 -9 21 -13 31 -10 29 10 31 -12 2 -35 -25 -19 -28 -20 -39
-5 -8 10 -14 12 -19 6 -11 -19 -27 -12 -20 9 4 11 2 20 -4 20 -5 0 -13 -16
-17 -35 -7 -41 -29 -64 -46 -47 -7 7 -6 17 6 33 9 13 16 32 16 42 0 9 6 20 14
23 19 7 27 41 11 48 -11 4 -18 -13 -41 -92 -2 -7 -8 -10 -14 -7 -6 4 -10 -11
-10 -39 0 -49 -8 -56 -33 -28 -13 15 -14 19 -1 36 8 11 14 28 14 38 0 12 5 15
16 11 11 -4 15 -2 12 7 -10 30 -25 17 -55 -48 -22 -45 -30 -75 -26 -91 5 -21
3 -23 -17 -18 -13 3 -32 -1 -45 -9 -21 -13 -23 -13 -28 6 -3 12 1 24 11 30 15
9 -2 9 -47 1 -3 -1 4 -7 14 -15 21 -15 14 -46 -10 -46 -9 0 -15 9 -15 25 0 24
-9 30 -38 26 -7 -1 -26 27 -42 63 -17 37 -35 66 -41 66 -21 0 -2 111 21 127
27 19 27 46 0 38 -11 -3 -20 -2 -20 2 0 16 23 33 44 33 14 0 17 3 9 11 -7 7
-8 24 -2 47 6 28 4 38 -9 48 -27 20 -2 40 29 23 23 -12 23 -11 9 7 -8 10 -20
24 -27 29 -6 6 -14 21 -16 35 -4 25 -4 25 -6 -2 0 -15 4 -30 9 -33 8 -5 7 -11
-1 -21 -6 -7 -15 -11 -20 -8 -5 3 -9 -2 -9 -11 0 -20 -24 -14 -28 6 -1 8 6 26
18 39 24 27 26 76 5 116 l-15 29 0 -27 c0 -16 -4 -28 -8 -28 -4 0 -8 -12 -7
-27 0 -19 5 -27 15 -25 12 3 13 1 3 -9 -7 -7 -13 -21 -13 -31 0 -20 -34 -58
-51 -58 -6 0 -8 9 -4 22 6 16 4 20 -9 15 -34 -13 -61 54 -37 92 14 21 30 4 37
-39 5 -30 10 -37 22 -32 9 3 11 7 5 9 -7 3 -6 15 2 41 12 33 11 38 -3 43 -10
4 -20 5 -24 2 -5 -2 -8 1 -8 7 0 7 7 10 15 6 10 -3 15 1 15 13 0 10 10 29 23
43 26 28 76 63 81 57 8 -10 16 -59 9 -59 -5 0 -14 -10 -22 -22 -14 -23 -14
-23 7 -5 11 11 25 16 30 13 13 -8 21 51 8 64 -15 15 1 25 18 11 8 -7 12 -20 8
-29 -6 -16 -4 -16 19 -1 15 10 32 14 44 9 11 -4 66 -7 122 -5 l103 2 112 57
c62 32 118 66 126 77 18 25 46 24 74 -4z m218 8 c-7 -8 -20 -15 -29 -15 -13 1
-13 3 3 15 26 19 42 19 26 0z m1210 5 c0 -5 -5 -10 -11 -10 -5 0 -7 5 -4 10 3
6 8 10 11 10 2 0 4 -4 4 -10z m-2520 -52 c0 -6 -54 -101 -67 -118 -2 -2 -8 2
-14 10 -12 18 -4 72 18 123 l16 37 24 -22 c12 -12 23 -25 23 -30z m183 8 c19
-15 23 -36 6 -36 -20 0 -49 21 -49 35 0 18 19 19 43 1z m127 6 c0 -5 -18 -28
-40 -52 -22 -24 -40 -52 -40 -62 0 -11 -4 -16 -10 -13 -6 3 -10 -5 -10 -19 0
-14 -4 -27 -9 -30 -5 -4 -5 -22 0 -43 4 -21 6 -46 3 -55 -3 -9 0 -34 5 -55 6
-21 11 -55 13 -76 1 -24 6 -36 14 -33 17 7 23 -48 8 -76 -10 -17 -13 -19 -14
-6 0 9 -6 18 -12 21 -10 3 -10 7 -1 17 11 12 3 44 -16 60 -3 3 -16 24 -28 46
-17 32 -23 61 -25 130 l-2 89 44 72 c28 45 55 77 70 82 33 12 50 13 50 3z
m980 -12 c-10 -19 -50 -29 -50 -12 0 7 17 16 58 31 1 1 -2 -8 -8 -19z m210 -6
c0 -8 -12 -20 -27 -27 -15 -6 -38 -22 -52 -34 -28 -26 -41 -29 -41 -9 0 8 18
27 40 43 22 15 40 33 40 40 0 16 40 3 40 -13z m1010 1 c0 -8 -9 -19 -20 -25
-23 -12 -27 -1 -9 31 11 21 29 17 29 -6z m-434 -63 c1 -66 -7 -90 -19 -59 -3
6 -6 -3 -6 -20 -1 -23 -6 -33 -17 -33 -9 0 -14 6 -11 13 2 6 1 21 -4 32 -6 15
-8 9 -8 -22 -1 -31 -5 -43 -15 -43 -8 0 -18 5 -21 11 -5 7 -13 5 -25 -6 -17
-16 -18 -13 -18 65 0 62 3 79 11 71 14 -14 14 -16 16 -71 0 -23 6 -40 12 -40
13 0 7 98 -7 135 -7 18 -6 18 9 6 11 -9 17 -10 17 -2 0 26 20 8 31 -29 7 -22
16 -40 21 -40 11 0 11 0 -7 50 -8 23 -15 45 -15 47 0 3 7 0 15 -7 12 -10 15
-9 15 5 0 9 6 15 13 13 8 -3 12 -29 13 -76z m-2196 33 c0 -39 -15 -47 -23 -13
-5 19 7 48 19 48 2 0 4 -16 4 -35z m1660 31 c0 -3 -4 -8 -10 -11 -5 -3 -10 -1
-10 4 0 6 5 11 10 11 6 0 10 -2 10 -4z m642 -31 c4 -17 4 -84 -1 -150 -4 -66
-6 -145 -5 -175 2 -30 5 -89 7 -130 3 -41 12 -95 21 -119 25 -68 20 -141 -10
-141 -18 0 -18 0 6 -90 11 -41 23 -109 25 -150 3 -41 7 -82 9 -90 10 -35 16
-447 7 -479 -13 -41 -37 -60 -77 -61 -30 0 -33 4 -67 88 -20 48 -39 104 -43
125 -3 21 -17 54 -31 73 -13 20 -28 57 -33 83 -5 26 -25 82 -46 124 -20 43
-35 80 -32 82 2 3 19 8 36 11 l32 7 2 -49 1 -49 6 49 c9 73 40 73 59 1 9 -38
10 -38 11 -9 1 42 23 85 40 79 11 -4 13 5 8 48 -4 29 -2 68 3 87 9 33 7 37
-35 80 -48 49 -69 90 -96 193 -17 65 -18 75 -3 185 9 65 22 127 30 140 9 13
12 32 9 45 -4 12 -3 18 2 12 4 -5 15 -10 23 -10 11 0 14 -11 13 -45 -3 -54 12
-37 23 25 3 22 9 45 13 50 4 6 13 35 20 65 8 30 21 63 30 74 9 10 15 20 14 22
-2 2 -3 11 -3 20 0 26 23 10 32 -21z m-1842 1 c0 -24 -16 -43 -27 -32 -8 8 6
56 17 56 6 0 10 -11 10 -24z m40 10 c0 -3 -4 -8 -10 -11 -5 -3 -10 -1 -10 4 0
6 5 11 10 11 6 0 10 -2 10 -4z m50 -32 c0 -4 -7 -4 -15 0 -10 3 -15 -1 -15
-11 0 -13 -3 -14 -11 -6 -7 7 -9 19 -5 28 4 13 10 14 26 5 11 -6 20 -13 20
-16z m-252 -1 c-5 -25 -28 -28 -28 -4 0 12 6 21 16 21 9 0 14 -7 12 -17z
m1328 4 c-11 -7 -30 -22 -42 -33 -12 -12 -27 -18 -34 -14 -16 10 48 60 75 59
20 0 20 0 1 -12z m-1176 -39 l30 -3 -35 -40 c-54 -60 -75 -97 -75 -132 0 -18
-4 -33 -10 -33 -5 0 -10 5 -10 11 0 5 -4 7 -10 4 -15 -9 -12 2 7 31 9 15 17
47 17 77 1 39 5 52 16 52 8 0 16 8 18 19 2 11 0 16 -6 12 -16 -10 -25 13 -11
30 10 13 14 12 26 -5 7 -11 27 -21 43 -23z m1230 -3 c-19 -19 -31 -35 -26 -35
4 0 4 -5 0 -12 -5 -7 -10 -3 -16 12 -9 25 11 56 47 70 32 12 31 2 -5 -35z m95
25 c-10 -11 -20 -18 -23 -16 -5 6 21 35 32 36 5 0 1 -9 -9 -20z m65 11 c0 -5
-7 -14 -16 -22 -8 -7 -22 -26 -30 -42 -17 -31 -30 -31 -20 1 14 42 66 92 66
63z m101 -14 c-1 -12 -15 -9 -19 4 -3 6 1 10 8 8 6 -3 11 -8 11 -12z m88 -86
c-10 -21 -13 -23 -16 -8 -6 23 -19 22 -26 -3 -3 -11 -12 -20 -20 -20 -16 0
-12 45 6 68 9 11 13 11 24 -4 12 -17 13 -17 13 3 0 12 3 29 7 39 5 15 9 12 16
-16 6 -23 5 -42 -4 -59z m-129 65 c0 -7 -6 -19 -14 -25 -8 -6 -19 -25 -26 -41
-13 -32 -37 -40 -46 -16 -3 9 10 32 32 55 39 43 54 50 54 27z m-167 -21 c7
-16 -8 -29 -23 -20 -10 6 -2 35 10 35 4 0 10 -7 13 -15z m227 3 c-1 -7 -7 -24
-14 -37 -17 -31 -30 -11 -15 23 13 27 29 35 29 14z m440 -7 c0 -6 -4 -13 -10
-16 -5 -3 -10 1 -10 9 0 9 5 16 10 16 6 0 10 -4 10 -9z m-990 -120 c0 -61 -6
-91 -20 -91 -4 0 -7 33 -5 73 2 81 2 77 15 77 6 0 10 -26 10 -59z m-890 13 c0
-8 -4 -14 -10 -14 -5 0 -10 9 -10 21 0 11 5 17 10 14 6 -3 10 -13 10 -21z
m820 10 c0 -8 -4 -12 -10 -9 -5 3 -10 10 -10 16 0 5 5 9 10 9 6 0 10 -7 10
-16z m160 2 c9 -12 8 -22 -5 -50 -19 -41 -45 -48 -45 -13 0 25 21 77 31 77 4
0 12 -6 19 -14z m-139 -98 c-9 -37 -20 -70 -25 -75 -5 -5 -6 2 -2 17 19 67 26
98 26 130 1 28 3 31 9 15 5 -13 2 -46 -8 -87z m-911 76 c0 -8 -4 -12 -10 -9
-5 3 -10 10 -10 16 0 5 5 9 10 9 6 0 10 -7 10 -16z m1650 2 c0 -3 -4 -8 -10
-11 -5 -3 -10 -1 -10 4 0 6 5 11 10 11 6 0 10 -2 10 -4z m-760 -63 c0 -14 -19
-38 -25 -32 -8 8 5 39 16 39 5 0 9 -3 9 -7z m-940 -99 c8 -28 27 -64 43 -80
15 -16 27 -34 27 -41 0 -14 -59 -48 -67 -39 -3 3 2 8 11 12 25 9 19 26 -6 19
-21 -5 -21 -5 -6 8 17 13 15 62 -2 52 -13 -8 -21 12 -25 56 -1 22 -5 43 -9 46
-11 11 -6 25 6 21 7 -3 19 -27 28 -54z m57 -20 c10 -10 25 -13 44 -9 22 5 29
3 29 -8 0 -27 -28 -41 -63 -31 -25 8 -33 16 -35 37 -4 31 3 34 25 11z m20
-161 c-10 -11 -17 -13 -17 -5 0 6 -7 9 -15 6 -8 -4 -15 -1 -15 6 0 7 8 10 20
7 11 -3 23 -1 26 5 3 5 9 7 12 3 3 -3 -2 -13 -11 -22z m-23 -58 c61 -61 85
-99 72 -113 -4 -3 -12 8 -18 26 -7 18 -24 36 -40 43 -50 20 -116 109 -82 109
2 0 33 -29 68 -65z m1598 -36 c22 -28 38 -123 38 -220 0 -61 -2 -67 -22 -73
-44 -11 -66 -7 -74 16 -19 62 5 313 30 305 5 -2 18 -14 28 -28z m-1266 -96
c-10 -10 -19 5 -10 18 6 11 8 11 12 0 2 -7 1 -15 -2 -18z m-258 -22 c3 -8 -1
-12 -9 -9 -7 2 -15 10 -17 17 -3 8 1 12 9 9 7 -2 15 -10 17 -17z m52 -21 c0
-5 -5 -12 -11 -16 -14 -8 -33 11 -25 25 7 11 36 4 36 -9z m40 -11 c0 -11 -4
-17 -10 -14 -5 3 -10 15 -10 26 0 11 5 17 10 14 6 -3 10 -15 10 -26z m1540 1
c0 -5 -4 -10 -10 -10 -5 0 -10 5 -10 10 0 6 5 10 10 10 6 0 10 -4 10 -10z
m-1360 -15 c14 -17 14 -17 -20 -20 -35 -4 -46 6 -25 22 24 17 30 16 45 -2z
m-221 -26 c-22 -14 -49 -11 -49 5 0 9 12 16 28 18 30 3 42 -10 21 -23z m1569
-27 c2 -18 -1 -32 -6 -32 -12 0 -22 24 -22 52 0 32 25 15 28 -20z m42 -6 c0
-7 3 -28 6 -45 6 -27 4 -31 -16 -31 -18 0 -21 4 -16 23 3 12 6 32 6 45 0 12 5
22 10 22 6 0 10 -6 10 -14z m-1650 -106 c0 -5 -4 -10 -10 -10 -5 0 -10 5 -10
10 0 6 5 10 10 10 6 0 10 -4 10 -10z"/>
<path d="M1865 3660 c3 -5 8 -10 11 -10 2 0 4 5 4 10 0 6 -5 10 -11 10 -5 0
-7 -4 -4 -10z"/>
<path d="M1882 3145 c0 -16 2 -22 5 -12 2 9 2 23 0 30 -3 6 -5 -1 -5 -18z"/>
<path d="M2930 2764 c0 -8 5 -12 10 -9 6 3 10 10 10 16 0 5 -4 9 -10 9 -5 0
-10 -7 -10 -16z"/>
<path d="M2211 2704 c0 -11 3 -14 6 -6 3 7 2 16 -1 19 -3 4 -6 -2 -5 -13z"/>
<path d="M2003 2592 c-22 -3 -22 -5 -8 -32 8 -16 15 -38 15 -50 0 -11 4 -20 9
-20 4 0 5 18 1 40 -9 51 5 53 18 3 6 -24 10 -30 11 -17 1 12 -5 35 -11 50 -10
22 -19 28 -35 26z"/>
<path d="M1700 2550 c0 -5 5 -10 11 -10 5 0 7 5 4 10 -3 6 -8 10 -11 10 -2 0
-4 -4 -4 -10z"/>
<path d="M1665 2530 c-3 -5 -1 -10 4 -10 6 0 11 5 11 10 0 6 -2 10 -4 10 -3 0
-8 -4 -11 -10z"/>
<path d="M1701 2514 c0 -11 3 -14 6 -6 3 7 2 16 -1 19 -3 4 -6 -2 -5 -13z"/>
<path d="M1801 2513 c0 -12 -4 -30 -7 -40 -5 -14 -4 -15 5 -7 7 6 11 24 8 40
-3 21 -4 23 -6 7z"/>
<path d="M1923 2495 c0 -22 2 -30 4 -17 2 12 2 30 0 40 -3 9 -5 -1 -4 -23z"/>
<path d="M1821 2505 c0 -11 4 -27 9 -35 9 -13 10 -13 9 0 0 8 -4 24 -9 35 l-9
20 0 -20z"/>
<path d="M1980 2508 c0 -9 5 -20 10 -23 13 -8 13 5 0 25 -8 13 -10 13 -10 -2z"/>
<path d="M1756 2495 c-3 -8 -1 -15 4 -15 6 0 10 7 10 15 0 8 -2 15 -4 15 -2 0
-6 -7 -10 -15z"/>
<path d="M2334 2400 c2 -14 0 -36 -4 -50 l-7 -25 -10 23 c-7 19 -9 12 -10 -34
-1 -46 2 -60 21 -78 16 -16 21 -28 16 -50 -3 -16 -11 -31 -18 -34 -11 -3 -12
0 -3 17 7 12 9 26 5 32 -4 7 -13 -2 -21 -21 -10 -25 -16 -31 -25 -22 -7 7 -16
8 -23 2 -7 -6 -24 -6 -45 0 -40 11 -70 -2 -70 -31 0 -12 -5 -19 -12 -16 -7 2
-13 18 -13 35 0 19 -7 36 -19 45 -12 9 -17 20 -13 30 3 9 0 23 -8 31 -12 12
-12 16 5 31 11 10 24 14 31 9 19 -12 93 -11 101 0 4 6 8 17 8 25 0 10 -3 11
-14 2 -9 -7 -32 -10 -58 -7 -66 7 -115 -11 -128 -47 -13 -40 -13 -47 4 -47 18
0 56 -64 56 -95 0 -13 7 -30 15 -39 14 -14 20 -13 60 10 l45 24 57 -19 c32
-11 60 -18 64 -15 14 8 37 102 44 174 5 64 3 82 -15 120 -12 28 -19 35 -16 20z"/>
<path d="M1779 2340 c-6 -16 -15 -31 -20 -31 -5 -1 -14 -2 -20 -3 -7 0 -15
-10 -20 -21 l-8 -20 0 20 c-1 17 -3 17 -11 5 -14 -21 -12 -58 3 -63 6 -2 27
11 46 30 18 18 39 33 46 33 7 0 18 7 25 15 14 17 56 20 65 5 4 -6 1 -17 -5
-25 -8 -10 -9 -15 -2 -15 6 0 14 5 17 10 3 6 15 10 26 10 38 0 -2 38 -53 51
-26 6 -48 15 -48 20 0 22 -32 6 -41 -21z"/>
<path d="M2225 2290 c-3 -5 -1 -10 4 -10 6 0 11 5 11 10 0 6 -2 10 -4 10 -3 0
-8 -4 -11 -10z"/>
<path d="M1660 2246 c0 -14 5 -26 10 -26 6 0 10 9 10 19 0 11 -4 23 -10 26 -6
4 -10 -5 -10 -19z"/>
<path d="M1794 2193 c-8 -21 -11 -29 -13 -43 0 -5 -11 -10 -23 -10 -13 0 -29
-4 -37 -9 -11 -7 -9 -13 8 -30 11 -11 21 -29 21 -39 0 -28 11 -34 30 -17 22
20 53 9 47 -16 -6 -21 8 -26 19 -8 4 7 27 10 60 7 66 -6 74 2 81 80 5 59 5 59
-23 65 -16 3 -41 3 -56 0 -21 -4 -28 -2 -28 10 0 9 10 18 23 20 18 3 16 5 -7
6 -16 0 -38 -6 -48 -16 -17 -15 -18 -15 -18 0 0 22 -26 22 -36 0z m46 -88 c0
-8 -4 -15 -10 -15 -5 0 -10 7 -10 15 0 8 5 15 10 15 6 0 10 -7 10 -15z m115
-14 c0 -21 -5 -24 -44 -25 -27 0 -46 4 -49 12 -2 7 5 12 16 12 11 0 25 7 32
15 19 23 45 14 45 -14z"/>
<path d="M2020 2128 c0 -19 2 -20 10 -8 13 19 13 30 0 30 -5 0 -10 -10 -10
-22z"/>
<path d="M2026 2075 c3 -14 7 -40 8 -58 1 -24 6 -32 21 -33 34 -1 36 6 10 34
-14 15 -25 37 -25 49 0 12 -5 25 -10 28 -7 4 -8 -3 -4 -20z"/>
<path d="M1776 2033 c-12 -12 -6 -33 9 -33 8 0 15 6 15 14 0 17 -14 28 -24 19z"/>
<path d="M1893 1972 c10 -10 17 -25 17 -33 0 -12 2 -12 10 1 9 15 -13 50 -33
50 -6 0 -3 -8 6 -18z"/>
<path d="M1659 1937 c-6 -23 -16 -48 -21 -54 -8 -10 -5 -13 11 -13 16 0 21 6
21 24 0 14 4 27 9 30 14 9 33 -21 27 -42 -4 -11 0 -24 9 -32 19 -16 19 -40 0
-40 -8 0 -15 -4 -15 -10 0 -5 5 -10 11 -10 6 0 8 -9 4 -20 -5 -16 -2 -20 14
-20 22 0 23 3 23 96 0 55 -18 92 -57 118 -24 16 -24 15 -36 -27z"/>
<path d="M1800 1910 c-8 -5 -12 -12 -9 -15 4 -3 12 1 19 10 14 17 11 19 -10 5z"/>
<path d="M1825 1850 c-3 -6 1 -7 9 -4 18 7 21 14 7 14 -6 0 -13 -4 -16 -10z"/>
<path d="M1835 1800 c-3 -5 -1 -10 4 -10 6 0 11 5 11 10 0 6 -2 10 -4 10 -3 0
-8 -4 -11 -10z"/>
<path d="M1680 1760 c0 -5 5 -10 10 -10 6 0 10 5 10 10 0 6 -4 10 -10 10 -5 0
-10 -4 -10 -10z"/>
<path d="M1830 1740 c-8 -5 -12 -12 -9 -15 4 -3 12 1 19 10 14 17 11 19 -10 5z"/>
<path d="M3261 2154 c0 -11 3 -14 6 -6 3 7 2 16 -1 19 -3 4 -6 -2 -5 -13z"/>
<path d="M3267 1918 c-7 -27 2 -45 14 -27 11 18 11 49 0 49 -5 0 -11 -10 -14
-22z"/>
<path d="M3270 1349 c-13 -24 -4 -41 10 -19 10 16 13 40 5 40 -2 0 -9 -9 -15
-21z"/>
<path d="M3803 4698 c37 -36 67 -70 67 -76 0 -5 16 -29 35 -52 28 -33 33 -45
25 -60 -13 -24 -13 -150 0 -150 6 0 10 24 10 52 l0 53 27 -28 c26 -26 28 -33
29 -122 1 -53 4 -98 8 -102 3 -3 6 5 6 20 0 14 3 33 6 42 5 13 10 11 24 -12
13 -21 16 -43 12 -91 -5 -73 -24 -79 -33 -11 -3 24 -5 -12 -3 -81 2 -133 14
-163 26 -65 4 33 11 89 15 125 14 108 37 119 49 22 6 -44 9 -51 14 -32 l6 25
12 -22 c7 -12 12 -37 12 -55 1 -29 6 -36 43 -53 l42 -20 3 -70 c3 -74 -9 -111
-40 -121 -20 -6 -26 -58 -7 -70 6 -3 8 -17 5 -31 -4 -13 -3 -29 1 -36 4 -7 12
11 18 42 11 59 27 74 45 42 8 -16 7 -28 -5 -50 -8 -17 -15 -38 -15 -48 0 -10
-9 -33 -20 -50 -19 -31 -19 -33 -1 -42 17 -10 31 -57 46 -159 7 -42 7 -43 -19
-36 -26 6 -26 6 -26 -55 0 -34 -7 -78 -15 -98 -21 -49 -19 -56 10 -49 19 5 32
0 50 -18 42 -42 33 -50 -46 -42 l-70 6 30 -32 c17 -18 31 -37 31 -43 0 -5 12
-19 28 -31 23 -19 27 -30 28 -76 0 -29 6 -63 13 -76 9 -17 10 -27 1 -37 -9
-11 -7 -16 9 -25 33 -17 53 -55 61 -117 4 -32 14 -86 21 -120 l12 -62 -38 -47
c-21 -25 -51 -54 -67 -64 -24 -14 -26 -19 -14 -29 18 -15 11 -78 -12 -104 -14
-16 -14 -19 5 -32 21 -14 21 -17 6 -55 -14 -35 -19 -39 -42 -33 -14 3 -31 10
-38 15 -8 7 -11 -5 -10 -44 1 -63 -27 -133 -93 -227 -25 -35 -51 -73 -59 -85
-8 -11 -31 -38 -50 -58 -19 -21 -31 -38 -26 -38 5 0 44 36 86 80 78 82 105 98
96 58 -2 -13 -1 -48 3 -78 l7 -55 2 53 c2 82 21 142 67 209 23 34 57 93 74
130 97 207 112 234 180 333 10 14 21 40 25 58 3 17 22 47 41 64 28 26 34 39
31 61 -3 23 1 31 20 38 13 5 23 17 23 28 0 10 9 38 20 62 11 24 20 58 20 76 0
41 37 71 99 79 44 6 48 8 48 34 0 45 27 76 82 94 68 22 87 20 127 -10 41 -32
53 -25 35 19 -7 18 -20 52 -28 77 -8 25 -25 68 -38 95 -12 28 -25 63 -29 79
-4 17 -15 41 -25 55 -10 14 -35 62 -57 106 -21 44 -50 98 -64 120 -14 22 -39
72 -55 110 -41 102 -86 166 -145 205 -28 19 -66 56 -84 81 -20 27 -56 58 -88
76 -75 43 -121 97 -115 136 3 25 0 31 -28 43 -63 26 -92 60 -114 133 -16 52
-30 78 -58 103 -20 18 -69 62 -108 98 -170 154 -311 263 -192 148z m647 -797
c0 -21 -16 -2 -24 29 -7 24 -6 24 8 6 9 -11 16 -27 16 -35z m-57 -12 c15 -23
27 -55 27 -73 0 -43 21 -148 31 -160 5 -5 6 7 3 26 -7 39 10 61 21 28 4 -12
14 -19 27 -17 19 2 23 -7 39 -88 13 -67 15 -102 8 -139 -6 -33 -6 -53 1 -60 5
-5 11 -24 11 -40 l1 -31 7 30 c4 17 6 44 4 60 -4 40 7 105 18 105 5 0 9 -6 9
-14 0 -7 7 -19 15 -26 8 -7 15 -25 15 -40 0 -15 9 -35 20 -45 18 -16 19 -27
14 -104 -3 -47 -7 -88 -9 -92 -2 -3 0 -19 5 -35 8 -27 8 -26 9 16 1 25 8 56
16 70 9 17 10 29 3 37 -14 17 0 53 20 53 26 0 40 -13 48 -44 4 -16 15 -31 26
-34 19 -5 32 -38 26 -69 -2 -10 -18 -27 -36 -38 -25 -16 -32 -26 -31 -50 2
-41 -7 -58 -43 -85 -24 -18 -35 -20 -48 -12 -14 8 -20 3 -35 -34 -15 -37 -22
-44 -47 -44 -33 0 -33 -1 -12 -46 15 -32 15 -35 -5 -67 -11 -18 -29 -41 -39
-50 -18 -17 -20 -16 -36 26 -9 23 -16 49 -16 56 0 8 -13 35 -29 60 -25 39 -30
61 -37 146 -5 55 -9 134 -9 175 0 52 -9 102 -28 165 -31 99 -29 123 9 158 l26
24 -27 28 c-16 19 -23 34 -19 44 9 18 8 38 -2 138 -5 53 -3 77 6 88 7 8 10 22
6 30 -11 30 11 14 37 -26z m124 -78 c5 -33 3 -41 -11 -41 -9 0 -17 6 -18 13
-2 22 -5 32 -13 51 -5 12 -3 21 6 27 20 12 30 -2 36 -50z m88 -191 c0 -13 -6
-25 -12 -27 -9 -3 -13 6 -13 27 0 21 4 30 13 28 6 -3 12 -15 12 -28z m95 -192
c0 -7 -4 -19 -9 -27 -11 -17 -25 3 -17 24 7 18 26 20 26 3z"/>
<path d="M2796 4133 c-6 -14 -5 -15 5 -6 7 7 10 15 7 18 -3 3 -9 -2 -12 -12z"/>
<path d="M4109 4018 c-3 -22 -1 -34 4 -29 5 5 7 21 5 37 -3 27 -4 26 -9 -8z"/>
<path d="M1067 3276 c-4 -32 -5 -61 -3 -63 7 -7 19 82 14 103 -2 11 -7 -8 -11
-40z"/>
<path d="M4147 2433 c-2 -32 -1 -62 4 -67 5 -6 9 18 9 57 0 37 -2 67 -4 67 -2
0 -6 -26 -9 -57z"/>
<path d="M3050 2226 c-29 -9 -35 -16 -37 -40 -4 -50 -64 -155 -108 -187 -38
-29 -39 -31 -40 -92 0 -56 -3 -66 -38 -112 -22 -27 -52 -60 -68 -73 -16 -13
-29 -29 -29 -35 0 -21 -48 -115 -68 -135 -25 -25 -152 -200 -160 -220 -4 -12
-1 -12 17 -3 12 7 35 36 52 66 17 30 37 55 44 55 19 0 27 -71 19 -181 -5 -69
-4 -99 4 -99 7 0 11 29 10 80 0 49 5 86 12 95 7 8 13 44 15 81 3 72 -5 60 113
164 29 26 44 16 68 -45 16 -44 16 -77 -5 -165 -5 -25 -10 -97 -11 -161 0 -87
-5 -130 -19 -172 -17 -48 -18 -57 -5 -68 9 -7 14 -31 14 -67 0 -90 16 -47 28
77 7 63 16 117 21 120 5 3 11 42 14 86 8 124 63 478 78 507 6 11 12 29 15 41
2 12 13 74 24 137 11 63 25 135 31 160 5 25 13 71 16 103 4 42 10 60 24 68 11
5 19 14 19 19 0 12 -4 11 -50 -4z m-96 -289 c-4 -12 -7 -58 -6 -102 1 -80 1
-80 -38 -124 -63 -69 -97 -35 -44 43 15 21 33 70 41 110 8 39 19 79 24 89 13
24 32 11 23 -16z"/>
<path d="M1738 1513 c7 -3 16 -2 19 1 4 3 -2 6 -13 5 -11 0 -14 -3 -6 -6z"/>
<path d="M2465 1290 c-3 -5 -1 -10 4 -10 6 0 11 5 11 10 0 6 -2 10 -4 10 -3 0
-8 -4 -11 -10z"/>
<path d="M2830 824 c0 -14 4 -23 9 -20 5 3 7 15 4 26 -7 28 -13 25 -13 -6z"/>
<path d="M2990 650 c0 -29 2 -51 4 -49 8 8 10 88 3 95 -4 4 -7 -17 -7 -46z"/>
</g>
</svg>
